<?xml version="1.0" encoding="utf-8"?>
<!-- Generator: Adobe Illustrator 26.0.3, SVG Export Plug-In . SVG Version: 6.00 Build 0)  -->
<svg version="1.0" id="katman_1" xmlns="http://www.w3.org/2000/svg" xmlns:xlink="http://www.w3.org/1999/xlink" x="0px" y="0px"
	 viewBox="0 0 600 450" style="enable-background:new 0 0 600 450;" xml:space="preserve">
<style type="text/css">
	.st0{fill:#010202;}
	.st1{fill:#FFFFFF;}
</style>
<path class="st0" d="M446.1,111.5h-292c-1.2,0-2.4,0-3.6,0c-1,0-2,0-3.1,0c-2.2,0.1-4.5,0.2-6.7,0.6c-2.2,0.4-4.4,1.1-6.4,2.1
	c-4,2-7.3,5.3-9.3,9.3c-1,2-1.7,4.1-2.1,6.4c-0.4,2.2-0.5,4.5-0.6,6.7c0,1,0,2,0,3.1c0,1.2,0,2.4,0,3.6v164c0,1.2,0,2.4,0,3.7
	c0,1,0,2,0,3.1c0.1,2.2,0.2,4.5,0.6,6.7c0.4,2.2,1.1,4.4,2.1,6.4c1,2,2.3,3.8,3.9,5.4c1.6,1.6,3.4,2.9,5.4,3.9c2,1,4.1,1.7,6.4,2.1
	c2.2,0.4,4.5,0.5,6.7,0.6c1,0,2,0,3.1,0c1.2,0,2.4,0,3.6,0h292c1.2,0,2.4,0,3.6,0c1,0,2,0,3.1,0c2.2-0.1,4.5-0.2,6.7-0.6
	c2.2-0.4,4.4-1.1,6.4-2.1c4-2.1,7.3-5.3,9.3-9.3c1-2,1.7-4.1,2.1-6.4c0.4-2.2,0.5-4.5,0.6-6.7c0-1,0-2,0-3.1c0-1.2,0-2.4,0-3.7v-164
	c0-1.2,0-2.4,0-3.7c0-1,0-2,0-3.1c-0.1-2.2-0.2-4.5-0.6-6.7c-0.4-2.2-1.1-4.4-2.1-6.4c-2-4-5.3-7.3-9.3-9.3c-2-1-4.1-1.7-6.4-2.1
	c-2.2-0.4-4.5-0.5-6.7-0.6c-1,0-2,0-3.1,0C448.5,111.5,447.3,111.5,446.1,111.5z"/>
<path class="st1" d="M446.1,119.1l3.6,0c1,0,1.9,0,2.9,0c1.7,0,3.7,0.1,5.6,0.5c1.6,0.3,3,0.7,4.3,1.4c2.6,1.3,4.7,3.4,6,6
	c0.7,1.3,1.1,2.6,1.4,4.3c0.3,1.8,0.4,3.8,0.5,5.5c0,1,0,1.9,0,2.9c0,1.2,0,2.4,0,3.6v164c0,1.2,0,2.4,0,3.6c0,1,0,1.9,0,2.9
	c0,1.7-0.1,3.7-0.5,5.6c-0.2,1.5-0.7,2.9-1.4,4.2c-1.3,2.6-3.4,4.7-6,6c-1.3,0.7-2.6,1.1-4.2,1.4c-1.9,0.3-4,0.4-5.5,0.5
	c-1,0-2,0-3,0c-1.2,0-2.4,0-3.6,0h-292c-1.2,0-2.4,0-3.6,0c-1,0-1.9,0-2.9,0c-1.6,0-3.7-0.1-5.6-0.5c-1.5-0.2-2.9-0.7-4.3-1.4
	c-1.3-0.7-2.5-1.5-3.5-2.5c-1-1-1.9-2.2-2.5-3.5c-0.7-1.3-1.1-2.8-1.4-4.3c-0.3-1.9-0.4-3.8-0.5-5.5c0-1,0-1.9,0-2.9l0-2.9V142.6
	l0-2.8c0-1,0-1.9,0-2.9c0-1.7,0.1-3.7,0.5-5.6c0.2-1.5,0.7-2.9,1.4-4.3c0.7-1.3,1.5-2.5,2.5-3.5c1-1,2.2-1.9,3.5-2.5
	c1.3-0.7,2.8-1.1,4.3-1.4c1.9-0.3,3.9-0.4,5.6-0.5c1,0,1.9,0,2.9,0l3.6,0H446.1"/>
<g>
	<g>
		<path class="st0" d="M215.8,188.4c3-3.8,5.1-8.8,4.5-14c-4.4,0.2-9.8,2.9-12.9,6.7c-2.8,3.2-5.3,8.5-4.6,13.5
			C207.7,195,212.7,192.1,215.8,188.4"/>
		<path class="st0" d="M220.2,195.5c-7.2-0.4-13.3,4.1-16.7,4.1c-3.4,0-8.7-3.9-14.4-3.8c-7.4,0.1-14.3,4.3-18,11
			c-7.7,13.3-2,33.1,5.5,43.9c3.7,5.4,8.1,11.3,13.8,11.1c5.5-0.2,7.6-3.5,14.3-3.5c6.7,0,8.6,3.5,14.4,3.4c6-0.1,9.8-5.4,13.4-10.7
			c4.2-6.1,5.9-12,6-12.4c-0.1-0.1-11.6-4.5-11.7-17.7c-0.1-11.1,9-16.3,9.5-16.7C231.1,196.6,223,195.7,220.2,195.5"/>
	</g>
	<g>
		<path class="st0" d="M292,180.5c15.6,0,26.5,10.8,26.5,26.5c0,15.8-11.1,26.6-26.9,26.6h-17.3v27.5h-12.5v-80.6
			C261.8,180.5,292,180.5,292,180.5z M274.3,223.1h14.4c10.9,0,17.1-5.9,17.1-16c0-10.2-6.2-16-17-16h-14.4
			C274.3,191.1,274.3,223.1,274.3,223.1z"/>
		<path class="st0" d="M321.6,244.4c0-10.3,7.9-16.3,22.4-17.1l15.6-0.9v-4.5c0-6.5-4.3-10.1-12-10.1c-6.3,0-10.9,3.2-11.8,8.2
			h-11.3c0.3-10.4,10.2-18,23.5-18c14.3,0,23.6,7.5,23.6,19.1v40.1H360v-9.7h-0.3c-3.3,6.3-10.6,10.3-18.4,10.3
			C329.7,261.7,321.6,254.8,321.6,244.4z M359.6,239.2v-4.5l-13.9,0.9c-7.8,0.5-11.9,3.4-11.9,8.5c0,4.9,4.2,8.1,10.9,8.1
			C353.2,252.2,359.6,246.8,359.6,239.2z"/>
		<path class="st0" d="M382.2,282.7V273c0.8,0.1,2.7,0.2,3.7,0.2c5.5,0,8.7-2.3,10.6-8.4l1.1-3.6l-21.2-58.6h13.1l14.7,47.6h0.3
			l14.7-47.6H432l-22,61.6c-5,14.1-10.8,18.8-23,18.8C386.1,283,383.1,282.9,382.2,282.7z"/>
	</g>
</g>
</svg>
